# xmcd
#
# Track frame offsets:
#	150
#	8126
#	21677
#	40910
#	55313
#	83930
#	108261
#	152480
#	173814
#	187350
#	199805
#	209948
#	222425
#	241215
#	257360
#	288184
#
# Disc length: 4131 seconds
#
# Revision: 1
# Processed by: cddbd v1.5.2PL0 Copyright (c) Steve Scherf et al.
# Submitted via: audiograbber 1.83.01
#
DISCID=ec102110
DTITLE=Grateful Dead - 70-07-11A Fillmore East, New York NY
DYEAR=1900
DGENRE=
TTITLE0=Monkey and The Engineer
TTITLE1=Don't Ease Me In
TTITLE2=I've Been All Around This World
TTITLE3=Dark Hollow
TTITLE4=Black Peter
TTITLE5=El Paso
TTITLE6=New Speedway Boogie
TTITLE7=So Sad
TTITLE8=Rosalie McFall
TTITLE9=A Voice From On High
TTITLE10=Cold Jordan
TTITLE11=Swing Low, Sweet Chariot
TTITLE12=NRPS Whatcha Gonna Do
TTITLE13=NRPS Truck Drivin' Man
TTITLE14=NRPS Dirty Business
TTITLE15=NRPS Lodi
EXTD=
EXTT0=
EXTT1=
EXTT2=
EXTT3=
EXTT4=
EXTT5=
EXTT6=
EXTT7=
EXTT8=
EXTT9=
EXTT10=
EXTT11=
EXTT12=
EXTT13=
EXTT14=
EXTT15=
PLAYORDER=
